<?xml version="1.0" encoding="utf-8"?>
<!-- Generator: Adobe Illustrator 19.0.0, SVG Export Plug-In . SVG Version: 6.00 Build 0)  -->
<svg version="1.1" id="Layer_1" xmlns="http://www.w3.org/2000/svg" xmlns:xlink="http://www.w3.org/1999/xlink" x="0px" y="0px"
	 viewBox="0 0 428.4 53.2" style="enable-background:new 0 0 428.4 53.2;" xml:space="preserve">
<style type="text/css">
	.st0{fill:#FFFFFF;}
</style>
<path class="st0" d="M196.6,38.2c0.1,0.1,0.3,0.2,0.5,0.2c0.7,0,1.3-0.4,1.5-1c0.1-0.4,0.1-0.7,0-0.8c-0.1-0.1-0.4-0.2-0.5-0.2
	c-0.9,0-1.3,0.4-1.6,1.2C196.5,37.9,196.5,38.1,196.6,38.2z"/>
<g>
	<path class="st0" d="M118.3,40.3c-2.9,0-4.9,2.3-5.4,4.5c-0.3,1.4-0.1,2.6,0.6,3.3c0.6,0.7,1.5,1,2.7,1c1.3,0,2.4-0.6,3-1.2
		c-0.1-0.2-0.1-0.5-0.2-0.6c-0.5,0.3-1.3,0.6-2.2,0.6c-0.4,0-1.4-0.1-2.1-0.9c-0.5-0.6-0.7-1.5-0.5-2.5c0.4-1.9,1.7-3.1,3.5-3.1
		c1,0,1.7,0.5,2.2,0.7c0.2-0.3,0.6-1,0.7-1.3C120.4,40.7,119.6,40.3,118.3,40.3z"/>
	<path class="st0" d="M131.3,40.4c-0.4,0-1,0-1.3,0c-0.2,0.7-1.1,4.6-1.2,5.2c-0.3,1.4-1.5,2.4-2.9,2.4c-0.7,0-1.3-0.2-1.6-0.7
		c-0.4-0.5-0.5-1.2-0.3-2.1c0.1-0.5,0.4-1.8,0.7-3c0.2-0.7,0.4-1.5,0.5-2c-0.4,0-1,0-1.3,0c-0.3,1.1-1.1,4.2-1.4,5.5
		c-0.3,1.3-0.2,2.2,0.3,2.7c0.3,0.4,1,0.6,1.8,0.6c1.1,0,2.3-0.7,2.9-1.3l1.8-2l-1,2.6c0,0.1,0,0.2-0.1,0.4c0,0,0,0.1,0,0.2
		c0.4,0,0.9,0,1.2,0C130.1,45.7,131,41.8,131.3,40.4z"/>
	<path class="st0" d="M138,41.7c0.4,0,0.8,0.1,1.1,0.1c0.2-0.3,0.5-1.1,0.6-1.6c-0.7,0-2,0.2-2.9,1.3l-2.3,2.9l1.4-3.5
		c0-0.1,0.1-0.4,0.2-0.7c-0.5,0-1.1,0.1-1.4,0.2c-0.2,0.9-1.4,6.6-1.8,8.5c0.5,0,1.1,0,1.5,0c0.1-0.4,0.3-1.3,0.4-2.2
		c0.4-1.9,0.5-2.8,0.6-3C136,42.5,137,41.8,138,41.7z"/>
	<path class="st0" d="M145.2,40.2c-1.9,0-3.3,1.2-3.7,1.6c0.1,0.1,0.3,0.3,0.4,0.4c0.4-0.3,1.1-0.9,2.4-0.9c0.8,0,1.4,0.2,1.8,0.7
		c0.6,0.7,0.4,1.6,0.3,2.5l-0.2,0.9l-0.7-0.7c-0.3-0.3-0.8-0.5-1.5-0.5c-1.9,0-3.4,1.1-3.8,2.7c-0.1,0.7,0,1.3,0.3,1.7
		c0.4,0.5,1.2,0.6,1.8,0.6c0.9,0,1.7-0.3,2.5-0.9c-0.4,0.2-0.8,0.4-1.4,0.4c-0.7,0-1.3-0.2-1.7-0.7c-0.3-0.4-0.4-0.9-0.3-1.4
		c0.2-1,1.2-1.8,2.4-1.8c0.7,0,1.3,0.2,1.7,0.7c0.2,0.3,0.5,0.7,0.3,1.4c-0.1,0.3-0.2,0.6-0.4,0.9l0.3-0.3l-0.1,1.6
		c0.4,0,0.8,0,1.1,0c0.2-0.6,0.8-3.2,1.1-5c0.3-1.3,0.1-2.2-0.4-2.8C146.9,40.3,146,40.2,145.2,40.2z"/>
	<path class="st0" d="M154.2,47.9c-0.6,0-1-0.3-1.1-0.5c-0.3-0.4-0.4-0.9-0.2-1.5c0.2-1,0.6-2.8,0.9-3.7l0.1-0.5
		c0.1-0.4,0.3-0.4,1.6-0.4c0.4,0,1.1,0,1.4,0c0.1-0.3,0.2-0.7,0.2-1c-0.6-0.1-1.7-0.1-2,0l-0.2,0.1l-0.3-0.2
		c-0.3-0.2-0.3-0.4-0.1-1.1c0.1-0.3,0.2-0.9,0.3-1.4c-0.5,0-1.1,0.1-1.4,0.1c-0.1,0.3-0.3,1-0.3,1.4c-0.2,0.8-0.2,0.8-0.4,0.9
		c-0.1,0.1-0.1,0.1-1.6,0.1c-0.1,0.2-0.1,0.6-0.2,1c0.2,0,0.4,0,0.5,0c0.5,0,0.7,0,0.8,0.2l0.2,0.2l-0.1,0.2c0,0-0.9,3.8-1.2,4.8
		c-0.1,0.6-0.2,1.3,0.2,1.8c0.4,0.4,1.1,0.5,1.6,0.5c1.3,0.1,2.2-0.5,2.5-0.7c0-0.2,0-0.5,0-0.8C155.2,47.7,154.7,47.9,154.2,47.9
		L154.2,47.9z"/>
	<path class="st0" d="M163.4,40.3c-2.9,0-4.7,2.4-5.2,4.6c-0.3,1.3-0.1,2.4,0.5,3.1c0.6,0.6,1.4,1,2.6,1c1.4,0,2.6-0.5,3.2-1
		c0-0.2-0.1-0.4-0.2-0.7c-0.6,0.3-1.3,0.6-2.3,0.6c-0.9,0-1.7-0.3-2.2-0.9c-0.3-0.4-0.7-1-0.5-2l0.1-0.3l0.4,0c1.2,0,4.6,0,5.8-0.1
		c0.1-0.3,0.2-0.7,0.3-1.1c0.2-1,0-1.8-0.5-2.4C165.1,40.5,164.3,40.3,163.4,40.3z M164.8,43.9l-0.1,0.3l-5,0l0.1-0.7
		c0.3-1.5,1.5-2.5,3-2.5c0.9,0,1.4,0.4,1.6,0.7C164.8,42.1,165.1,42.8,164.8,43.9z"/>
	<path class="st0" d="M177.5,35.1c-0.1,0.4-0.4,1.7-1.3,6.1l-0.3,1.4l-0.7-1.5c-0.1-0.3-0.9-0.9-2-0.9c-2.4,0-4.5,1.9-5,4.4
		c-0.3,1.4-0.1,2.6,0.5,3.3c0.6,0.7,1.6,0.9,2.3,0.9c1.3,0,2.5-0.7,2.9-1.2l1.3-1.4l-0.4,1.9c0,0.1-0.1,0.3-0.1,0.6c0,0,0,0,0,0.1
		c0.4,0,0.9,0,1.2,0c0.3-1.4,2.5-11.4,3.1-13.8C178.5,35,177.8,35.1,177.5,35.1z M175.6,44.8c-0.4,1.8-1.6,2.9-3.3,2.9
		c-0.9,0-1.6-0.3-2-0.8c-0.5-0.6-0.7-1.4-0.5-2.4c0.4-1.8,1.7-2.9,3.3-2.9c0.8,0,1.5,0.3,2,0.8C175.4,42.8,175.8,43.5,175.6,44.8z"
		/>
	<path class="st0" d="M192.8,40.5c-0.4-0.1-0.9-0.2-1.1-0.3c-0.5,0.8-2.7,4.4-4,6.7l-0.7,1.2l-0.2-1.5c-0.3-2.5-0.8-5.3-1-6.3
		c-0.4,0.1-1.1,0.2-1.4,0.3c0.1,1.2,1.1,6.9,1.4,8.5c0.5,0.1,1.3,0.1,1.6,0.1C187.9,48.2,191.7,42.4,192.8,40.5z"/>
	<path class="st0" d="M195.5,40.3c-0.2,0.8-1.3,6.7-1.6,8.6c0.4,0,1,0,1.2,0c0.2-0.9,1.5-6.7,1.8-8.6
		C196.4,40.3,195.8,40.2,195.5,40.3z"/>
	<path class="st0" d="M205.4,40.2c-1.3,0-2.5,0.7-2.9,1.3l-0.6,0.8c0.5-0.5,1.3-0.8,2.1-0.8c0.9,0,1.4,0.4,1.6,0.7
		c0.4,0.5,0.6,1.2,0.4,2.1c0,0.2-0.2,0.8-0.3,1.4c-0.2,1-0.6,2.6-0.7,3.4c0.5,0,1,0,1.3,0c0.3-1.1,1-4.1,1.2-5.3
		c0.2-1.2,0.1-2.2-0.4-2.8C206.6,40.3,205.9,40.2,205.4,40.2z"/>
	<path class="st0" d="M201.7,40.3c-0.5,0-1.1,0-1.3,0.1c-0.7,3.3-1.4,7-1.7,8.3c0.4,0,1,0,1.3,0c0.2-0.9,0.9-4.3,1.1-5.2
		c0-0.2,0.1-0.5,0.3-0.7l-0.8,1l1-3.1C201.6,40.8,201.6,40.6,201.7,40.3z"/>
	<path class="st0" d="M213.7,47.9c-0.6,0-1-0.3-1.1-0.5c-0.3-0.4-0.4-0.9-0.2-1.5c0.2-1,0.6-2.8,0.9-3.7l0.1-0.5
		c0.1-0.4,0.3-0.4,1.6-0.4c0.4,0,1.1,0,1.4,0c0.1-0.3,0.2-0.7,0.2-1c-0.6-0.1-1.7-0.1-2,0l-0.2,0.1l-0.3-0.2
		c-0.3-0.2-0.3-0.4-0.1-1.1c0.1-0.3,0.2-0.9,0.3-1.4c-0.5,0-1.1,0.1-1.4,0.1c-0.1,0.3-0.3,1-0.3,1.4c-0.2,0.8-0.2,0.8-0.4,0.9
		c-0.1,0.1-0.1,0.1-1.6,0.1c-0.1,0.2-0.1,0.6-0.2,1c0.2,0,0.4,0,0.5,0c0.5,0,0.7,0,0.8,0.2l0.2,0.2l-0.1,0.2c0,0-0.9,3.8-1.2,4.8
		c-0.1,0.6-0.2,1.3,0.2,1.8c0.4,0.4,1.1,0.5,1.6,0.5c1.3,0.1,2.2-0.5,2.5-0.7c0-0.2,0-0.5,0-0.8C214.7,47.7,214.3,47.9,213.7,47.9
		L213.7,47.9z"/>
	<path class="st0" d="M222.3,40.2c-1.9,0-3.3,1.2-3.7,1.6c0.1,0.1,0.3,0.3,0.4,0.4c0.4-0.3,1.1-0.9,2.4-0.9c0.8,0,1.4,0.2,1.8,0.7
		c0.6,0.7,0.4,1.6,0.3,2.5l-0.2,0.9l-0.7-0.7c-0.3-0.3-0.8-0.5-1.5-0.5c-1.9,0-3.4,1.1-3.8,2.7c-0.1,0.7,0,1.3,0.3,1.7
		c0.4,0.5,1.2,0.6,1.8,0.6c0.9,0,1.7-0.3,2.5-0.9c-0.4,0.2-0.8,0.4-1.4,0.4c-0.7,0-1.3-0.2-1.7-0.7c-0.3-0.4-0.4-0.9-0.3-1.4
		c0.2-1,1.2-1.8,2.4-1.8c0.7,0,1.3,0.2,1.7,0.7c0.2,0.3,0.5,0.7,0.3,1.4c-0.1,0.3-0.2,0.6-0.4,0.9l0.3-0.3l-0.1,1.6
		c0.4,0,0.8,0,1.1,0c0.2-0.6,0.8-3.2,1.1-5c0.3-1.3,0.1-2.2-0.4-2.8C224,40.3,223,40.2,222.3,40.2z"/>
	<path class="st0" d="M236,40.3c0,0.2-0.1,0.4-0.1,0.6l-0.3,1.3l-0.7-1c-0.4-0.6-1.2-1-2.2-1c-2.4,0-4.6,1.9-5.1,4.5
		c-0.2,1.2,0,2.2,0.6,3c0.5,0.6,1.4,1,2.4,1c1.4,0,2.4-0.6,2.8-1.2l1.3-1.6l-0.4,2.1c-0.5,2.6-1.7,3.8-3.7,3.8
		c-1.2,0-2.1-0.5-2.5-0.8c-0.2,0.3-0.5,0.7-0.7,1.1c0.3,0.3,1.4,0.8,3,0.8c2.9,0,4.8-2,5.6-5.8l0.1-0.8c0.2-1.3,0.9-4.8,1.1-6.1
		C236.7,40.3,236.3,40.3,236,40.3z M235,44.9c-0.4,1.8-1.7,2.9-3.3,2.9c-1,0-1.6-0.4-2-0.8c-0.4-0.4-0.7-1.2-0.5-2.5
		c0.4-1.8,1.6-2.9,3.3-2.9c1.1,0,1.6,0.4,1.9,0.8C235.1,43,235.2,43.8,235,44.9z"/>
	<path class="st0" d="M244.4,40.3c-2.9,0-4.7,2.4-5.2,4.6c-0.3,1.3-0.1,2.4,0.5,3.1c0.6,0.6,1.4,1,2.6,1c1.4,0,2.6-0.5,3.2-1
		c0-0.2-0.1-0.4-0.2-0.7c-0.6,0.3-1.3,0.6-2.3,0.6c-0.9,0-1.7-0.3-2.2-0.9c-0.3-0.4-0.7-1-0.5-2l0.1-0.3l0.4,0c1.2,0,4.6,0,5.8-0.1
		c0.1-0.3,0.2-0.7,0.3-1.1c0.2-1,0-1.8-0.5-2.4C246.1,40.5,245.3,40.3,244.4,40.3z M245.8,43.9l-0.1,0.3l-5,0l0.1-0.7
		c0.3-1.5,1.5-2.5,3-2.5c0.9,0,1.4,0.4,1.6,0.7C245.8,42.1,246.1,42.8,245.8,43.9z"/>
	<path class="st0" d="M255.7,42.9c0.2-1.1,0.5-2.1,0.6-2.6c-0.4,0-0.9-0.1-1.4,0c-0.3,1-1.1,5.3-1.7,8l-0.3,1.3
		c-0.3,1.7-1.3,2.5-2.1,2.8c0.1,0.3,0.3,0.5,0.4,0.7c1.6-0.5,2.6-1.7,3-3.7C254.7,47.4,255.3,44.9,255.7,42.9z"/>
	<path class="st0" d="M263.4,40.3c-2.9,0-4.7,2.4-5.2,4.6c-0.3,1.3-0.1,2.4,0.5,3.1c0.6,0.6,1.4,1,2.6,1c1.4,0,2.6-0.5,3.2-1
		c0-0.2-0.1-0.4-0.2-0.7c-0.6,0.3-1.3,0.6-2.3,0.6c-0.9,0-1.7-0.3-2.2-0.9c-0.3-0.4-0.7-1-0.5-2l0.1-0.3l0.4,0c1.2,0,4.6,0,5.8-0.1
		c0.1-0.3,0.2-0.7,0.3-1.1c0.2-1,0-1.8-0.5-2.4C265.1,40.5,264.4,40.3,263.4,40.3z M264.8,43.9l-0.1,0.3l-5,0l0.1-0.7
		c0.3-1.5,1.5-2.5,3-2.5c0.9,0,1.4,0.4,1.6,0.7C264.8,42.1,265.1,42.8,264.8,43.9z"/>
	<path class="st0" d="M282,40.4c-0.3-0.1-0.8-0.2-1.1-0.3c-0.5,0.8-2.2,4.1-2.9,5.5c-0.4,0.7-0.6,1.2-0.7,1.3l-0.8,1.4l-0.2-2
		c-0.3-4.1-0.5-5.7-0.6-6.3c-0.4,0-1,0.1-1.3,0.2c0,0.2,0.1,0.5,0.2,1.2l0,0.2l-0.1,0.2c-0.2,0.4-0.6,1.1-1.1,1.8
		c-0.7,1.1-1.5,2.4-2,3.4l-0.9,1.7l-0.1-2.1c-0.1-2.6-0.3-5.4-0.4-6.5c-0.4,0.1-1.1,0.2-1.4,0.3c0,1.2,0.6,6.9,0.7,8.5
		c0.5,0.1,1.3,0.1,1.6,0.1c0.3-0.5,1.7-2.7,3-5.1l0.8-1.5l0.1,1.9c0.1,2.1,0.4,4,0.5,4.7c0.5,0.1,1.3,0.1,1.6,0.1
		C277.7,48.2,281,42.3,282,40.4z"/>
	<path class="st0" d="M284.8,47.1c-0.3-0.4-0.7-1-0.5-2l0.1-0.3l0.4,0c1.2,0,4.6,0,5.8-0.1c0.1-0.3,0.2-0.7,0.3-1.1
		c0.2-1,0-1.8-0.5-2.4c-0.5-0.6-1.2-0.8-2.2-0.8c-2.9,0-4.7,2.4-5.2,4.6c-0.3,1.3-0.1,2.4,0.5,3.1c0.6,0.6,1.4,1,2.6,1
		c1.4,0,2.6-0.5,3.2-1c0-0.2-0.1-0.4-0.2-0.7c-0.6,0.3-1.3,0.6-2.3,0.6C286,48,285.3,47.6,284.8,47.1z M284.7,43.6
		c0.3-1.5,1.5-2.5,3-2.5c0.9,0,1.4,0.4,1.6,0.7c0.3,0.4,0.6,1,0.3,2.1l-0.1,0.3l-5,0L284.7,43.6z"/>
	<path class="st0" d="M295.7,35.1c-0.5,1.3-2.6,11.4-3,13.8c0.3,0,0.7,0,1.1,0c0.6-2.2,2.7-11.6,3.1-13.9
		C296.5,35,296,35,295.7,35.1z"/>
	<path class="st0" d="M302.6,41.7c0.4,0,0.8,0.1,1.1,0.1c0.2-0.3,0.5-1.1,0.6-1.6c-0.7,0-2,0.2-2.9,1.3l-2.3,2.9l1.4-3.5
		c0-0.1,0.1-0.4,0.2-0.7c-0.5,0-1.1,0.1-1.4,0.2c-0.2,0.9-1.4,6.6-1.8,8.5c0.5,0,1.1,0,1.5,0c0.1-0.4,0.3-1.3,0.4-2.2
		c0.4-1.9,0.5-2.8,0.6-3C300.5,42.5,301.5,41.8,302.6,41.7z"/>
	<path class="st0" d="M313.1,40.2c-0.5,0.7-2.4,3.8-3.6,5.8l-0.7,1.1l-0.2-1.4c-0.4-2.2-0.8-4.6-1.1-5.5c-0.4,0.1-1.1,0.2-1.5,0.3
		c0.1,1.2,1.4,6.6,1.7,7.6l0.1,0.2l-0.1,0.2c-0.3,0.6-1.2,1.9-1.9,3c-0.3,0.5-0.6,0.9-0.8,1.2c0.3,0.2,0.8,0.4,1.1,0.5
		c1-1.4,6.8-10.2,8.3-12.7C313.9,40.4,313.4,40.3,313.1,40.2z"/>
</g>
<g>
	<path class="st0" d="M0,28V0.3h10.6c3.2,0,5.8,0.8,7.6,2.3c1.8,1.5,2.7,3.7,2.7,6.6c0,4.2-2,6.9-6.1,8.2L22.1,28h-6l-6.6-9.8H5V28
		H0z M5,13.7h5.5c1.7,0,3-0.3,4-0.9c1-0.6,1.4-1.7,1.4-3.4c0-1.7-0.5-2.8-1.4-3.4c-1-0.6-2.3-0.9-4-0.9H5V13.7z"/>
	<path class="st0" d="M27.1,28V0.3h18.4v4.5H32v7h11.6v4.7H32v7h13.4V28H27.1z"/>
	<path class="st0" d="M49.1,0.3h5.3l7.8,21.5l7.8-21.5h5.3L64.8,28h-5.1L49.1,0.3z"/>
	<path class="st0" d="M78.1,14.1c0-2.3,0.3-4.3,0.8-6c0.5-1.7,1.2-3.1,2-4.1c0.8-1,1.8-1.8,3-2.5c1.2-0.6,2.3-1.1,3.4-1.3
		S89.7,0,91,0s2.5,0.1,3.6,0.3s2.3,0.6,3.4,1.3c1.2,0.6,2.2,1.5,3,2.5s1.5,2.4,2.1,4.1c0.5,1.7,0.8,3.7,0.8,6c0,2.2-0.3,4.2-0.8,6
		c-0.5,1.7-1.2,3.1-2.1,4.1s-1.9,1.8-3,2.5c-1.2,0.6-2.3,1.1-3.4,1.3c-1.1,0.2-2.3,0.3-3.6,0.3s-2.5-0.1-3.6-0.3
		c-1.1-0.2-2.3-0.6-3.4-1.3c-1.2-0.6-2.2-1.5-3-2.5c-0.8-1-1.5-2.4-2-4.1C78.4,18.4,78.1,16.4,78.1,14.1z M83.1,14.1
		c0,2.1,0.2,3.8,0.6,5.2s1,2.4,1.8,3c0.8,0.6,1.6,1.1,2.5,1.3c0.8,0.2,1.8,0.3,3,0.3c0.9,0,1.8-0.1,2.4-0.2c0.7-0.1,1.4-0.4,2.1-0.8
		c0.7-0.4,1.3-0.9,1.8-1.7c0.5-0.7,0.8-1.7,1.1-2.9s0.5-2.6,0.5-4.3c0-2-0.2-3.8-0.6-5.1c-0.4-1.4-1-2.4-1.8-3
		c-0.8-0.6-1.6-1.1-2.5-1.3c-0.8-0.2-1.8-0.3-3-0.3c-0.9,0-1.7,0.1-2.4,0.2c-0.7,0.1-1.4,0.4-2.1,0.8c-0.7,0.4-1.3,1-1.8,1.6
		s-0.8,1.6-1.1,2.8S83.1,12.5,83.1,14.1z"/>
	<path class="st0" d="M109.8,28V0.3h5v23H128V28H109.8z"/>
	<path class="st0" d="M132.5,16.3v-16h5v16.4c0,2.4,0.5,4.2,1.6,5.3c1.1,1.1,2.7,1.7,5,1.7c2.3,0,4-0.6,5-1.7
		c1.1-1.1,1.6-2.9,1.6-5.3V0.3h5v16c0,3.8-1,6.8-3,8.9c-2,2.1-4.9,3.1-8.6,3.1c-3.7,0-6.5-1-8.5-3.1
		C133.5,23.1,132.5,20.1,132.5,16.3z"/>
	<path class="st0" d="M160.2,5.3v-5h22.7v5H174V28h-5V5.3H160.2z"/>
	<path class="st0" d="M187.3,28V0.3h5V28H187.3z"/>
	<path class="st0" d="M198.2,14.1c0-2.3,0.3-4.3,0.8-6c0.5-1.7,1.2-3.1,2-4.1c0.8-1,1.8-1.8,3-2.5c1.2-0.6,2.3-1.1,3.4-1.3
		s2.3-0.3,3.6-0.3s2.5,0.1,3.6,0.3s2.3,0.6,3.4,1.3c1.2,0.6,2.2,1.5,3,2.5s1.5,2.4,2.1,4.1c0.5,1.7,0.8,3.7,0.8,6
		c0,2.2-0.3,4.2-0.8,6c-0.5,1.7-1.2,3.1-2.1,4.1s-1.9,1.8-3,2.5c-1.2,0.6-2.3,1.1-3.4,1.3c-1.1,0.2-2.3,0.3-3.6,0.3
		s-2.5-0.1-3.6-0.3c-1.1-0.2-2.3-0.6-3.4-1.3c-1.2-0.6-2.2-1.5-3-2.5c-0.8-1-1.5-2.4-2-4.1C198.5,18.4,198.2,16.4,198.2,14.1z
		 M203.2,14.1c0,2.1,0.2,3.8,0.6,5.2s1,2.4,1.8,3c0.8,0.6,1.6,1.1,2.5,1.3c0.8,0.2,1.8,0.3,3,0.3c0.9,0,1.8-0.1,2.4-0.2
		c0.7-0.1,1.4-0.4,2.1-0.8c0.7-0.4,1.3-0.9,1.8-1.7c0.5-0.7,0.8-1.7,1.1-2.9s0.5-2.6,0.5-4.3c0-2-0.2-3.8-0.6-5.1
		c-0.4-1.4-1-2.4-1.8-3c-0.8-0.6-1.6-1.1-2.5-1.3c-0.8-0.2-1.8-0.3-3-0.3c-0.9,0-1.7,0.1-2.4,0.2c-0.7,0.1-1.4,0.4-2.1,0.8
		c-0.7,0.4-1.3,1-1.8,1.6s-0.8,1.6-1.1,2.8S203.2,12.5,203.2,14.1z"/>
	<path class="st0" d="M229.9,28V0.3h5.6l14.2,20.5V0.3h5V28h-5.6L234.9,7.3V28H229.9z"/>
	<path class="st0" d="M273.6,26.5v-5c1.7,1.4,3.6,2.1,5.7,2.1c1.6,0,2.7-0.3,3.4-1c0.7-0.6,1.1-1.9,1.1-3.8V0.3h5v18.4
		c0,2-0.3,3.6-0.9,5s-1.4,2.3-2.4,3c-1,0.6-1.9,1.1-2.8,1.3c-0.9,0.2-1.8,0.3-2.8,0.3C277.6,28.3,275.5,27.7,273.6,26.5z"/>
	<path class="st0" d="M295.8,28V0.3h18.4v4.5h-13.4v7h11.6v4.7h-11.6v7h13.4V28H295.8z"/>
	<path class="st0" d="M318.4,0.3h5l6.3,20.8l6.7-20.8h4.3l6.5,20.1l6.2-20.1h5L349.5,28h-4.7l-6.2-19.3L332.4,28h-5.1L318.4,0.3z"/>
	<path class="st0" d="M363.1,28V0.3h18.4v4.5h-13.4v7h11.6v4.7h-11.6v7h13.4V28H363.1z"/>
	<path class="st0" d="M387.2,28V0.3h5v23h13.3V28H387.2z"/>
	<path class="st0" d="M409.3,8.1c0-2.7,0.9-4.7,2.8-6.1s4.2-2,7-2c2.5,0,5,0.6,7.4,1.9v4.9c-2.1-1.4-4.4-2.1-6.8-2.1
		c-1.5,0-2.8,0.3-3.9,0.8s-1.6,1.4-1.6,2.5c0,0.9,0.5,1.6,1.4,2.2s2.1,1,3.5,1.3c1.4,0.4,2.7,0.8,4.1,1.3c1.4,0.5,2.6,1.5,3.5,2.8
		s1.4,3,1.4,5.2c0,2.2-0.9,4-2.8,5.4c-1.8,1.4-4.1,2.1-6.8,2.1c-3.5,0-6.6-0.8-9.1-2.3v-5c2.4,1.8,5,2.7,8,2.7
		c3.8,0,5.7-1.1,5.7-3.2c0-1-0.3-1.8-1-2.4c-0.7-0.6-1.6-1.1-2.6-1.4c-1.1-0.3-2.2-0.7-3.4-1.1c-1.2-0.4-2.3-0.9-3.4-1.3
		c-1.1-0.5-1.9-1.2-2.6-2.3S409.3,9.6,409.3,8.1z"/>
</g>
</svg>
